<svg width="33" height="32" viewBox="0 0 33 32" fill="none" xmlns="http://www.w3.org/2000/svg">
<path d="M0.428711 16.0846C0.428711 13.5366 0.633889 11.3946 1.04425 9.6584C1.4546 7.92221 2.21832 6.54679 3.3354 5.53213C4.45249 4.51747 6.03692 4.01015 8.0887 4.01015C10.1177 4.01015 11.6907 4.51747 12.8078 5.53213C13.9477 6.54679 14.7228 7.93348 15.1332 9.69222C15.5435 11.4284 15.7487 13.5592 15.7487 16.0846C15.7487 18.655 15.5435 20.8196 15.1332 22.5784C14.7228 24.3371 13.9477 25.7351 12.8078 26.7723C11.6907 27.7869 10.1177 28.2942 8.0887 28.2942C6.03692 28.2942 4.45249 27.7869 3.3354 26.7723C2.21832 25.7351 1.4546 24.3371 1.04425 22.5784C0.633889 20.8196 0.428711 18.655 0.428711 16.0846ZM15.0648 16.0846C15.0648 13.6494 14.8824 11.6088 14.5176 9.9628C14.1529 8.3168 13.4575 7.02029 12.4316 6.07328C11.4286 5.10372 9.9809 4.61894 8.0887 4.61894C6.1965 4.61894 4.73746 5.10372 3.71156 6.07328C2.70847 7.02029 2.02454 8.3168 1.65978 9.9628C1.29502 11.6088 1.11264 13.6494 1.11264 16.0846C1.11264 18.5423 1.29502 20.6054 1.65978 22.274C2.02454 23.9425 2.70847 25.2616 3.71156 26.2311C4.73746 27.2007 6.1965 27.6855 8.0887 27.6855C9.9809 27.6855 11.4286 27.2007 12.4316 26.2311C13.4575 25.2616 14.1529 23.9425 14.5176 22.274C14.8824 20.6054 15.0648 18.5423 15.0648 16.0846Z" fill="#49B7C5"/>
<path d="M25.4225 15.6449C26.8816 16.0733 28.0671 16.513 28.979 16.9639C29.8909 17.3923 30.6546 18.0349 31.2701 18.8918C31.8856 19.7486 32.1934 20.8985 32.1934 22.3416C32.1934 23.3337 31.9654 24.2807 31.5095 25.1826C31.0763 26.0846 30.3696 26.8286 29.3893 27.4149C28.409 28.0011 27.1665 28.2942 25.6619 28.2942H25.4225V31H24.7386V28.2604C23.4847 28.1477 22.3677 27.8095 21.3874 27.2458C20.4071 26.6595 19.6319 25.938 19.062 25.0812C18.5149 24.2018 18.1843 23.2886 18.0703 22.3416H18.7542C18.8454 23.0406 19.119 23.7734 19.5749 24.54C20.0309 25.3067 20.692 25.9831 21.5583 26.5693C22.4247 27.1556 23.4847 27.5163 24.7386 27.6516V16.1184C23.2568 15.69 22.0599 15.2728 21.148 14.867C20.2589 14.4386 19.5066 13.8185 18.891 13.0068C18.2755 12.1725 17.9677 11.0676 17.9677 9.69222C17.9677 8.04622 18.5263 6.69335 19.6433 5.63359C20.7832 4.5513 22.3905 4.01015 24.465 4.01015H24.7386V1H25.4225V4.04397C27.2007 4.22435 28.6028 4.8106 29.6287 5.8027C30.6774 6.79481 31.3385 7.91093 31.6121 9.15107H30.9282C30.6774 8.15896 30.096 7.21195 29.1841 6.31003C28.2722 5.38557 27.0184 4.83314 25.4225 4.65276V15.6449ZM18.6516 9.69222C18.6516 10.8873 18.9138 11.8568 19.4382 12.6009C19.9853 13.3224 20.6692 13.8861 21.4899 14.292C22.3335 14.6753 23.4163 15.0586 24.7386 15.4419V4.61894H24.465C22.7096 4.61894 21.2962 5.0699 20.2247 5.97181C19.176 6.85118 18.6516 8.09132 18.6516 9.69222ZM25.6619 27.6855C27.5541 27.6855 29.0018 27.1781 30.0048 26.1635C31.0079 25.1488 31.5095 23.8749 31.5095 22.3416C31.5095 21.1015 31.2359 20.0981 30.6888 19.3315C30.1416 18.5423 29.4463 17.9448 28.6028 17.5389C27.7821 17.1105 26.722 16.7046 25.4225 16.3213V27.6855H25.6619Z" fill="#49B7C5"/>
<path d="M0.428711 16.0846C0.428711 13.5366 0.633889 11.3946 1.04425 9.6584C1.4546 7.92221 2.21832 6.54679 3.3354 5.53213C4.45249 4.51747 6.03692 4.01015 8.0887 4.01015C10.1177 4.01015 11.6907 4.51747 12.8078 5.53213C13.9477 6.54679 14.7228 7.93348 15.1332 9.69222C15.5435 11.4284 15.7487 13.5592 15.7487 16.0846C15.7487 18.655 15.5435 20.8196 15.1332 22.5784C14.7228 24.3371 13.9477 25.7351 12.8078 26.7723C11.6907 27.7869 10.1177 28.2942 8.0887 28.2942C6.03692 28.2942 4.45249 27.7869 3.3354 26.7723C2.21832 25.7351 1.4546 24.3371 1.04425 22.5784C0.633889 20.8196 0.428711 18.655 0.428711 16.0846ZM15.0648 16.0846C15.0648 13.6494 14.8824 11.6088 14.5176 9.9628C14.1529 8.3168 13.4575 7.02029 12.4316 6.07328C11.4286 5.10372 9.9809 4.61894 8.0887 4.61894C6.1965 4.61894 4.73746 5.10372 3.71156 6.07328C2.70847 7.02029 2.02454 8.3168 1.65978 9.9628C1.29502 11.6088 1.11264 13.6494 1.11264 16.0846C1.11264 18.5423 1.29502 20.6054 1.65978 22.274C2.02454 23.9425 2.70847 25.2616 3.71156 26.2311C4.73746 27.2007 6.1965 27.6855 8.0887 27.6855C9.9809 27.6855 11.4286 27.2007 12.4316 26.2311C13.4575 25.2616 14.1529 23.9425 14.5176 22.274C14.8824 20.6054 15.0648 18.5423 15.0648 16.0846Z" stroke="#49B7C5" stroke-width="0.2"/>
<path d="M25.4225 15.6449C26.8816 16.0733 28.0671 16.513 28.979 16.9639C29.8909 17.3923 30.6546 18.0349 31.2701 18.8918C31.8856 19.7486 32.1934 20.8985 32.1934 22.3416C32.1934 23.3337 31.9654 24.2807 31.5095 25.1826C31.0763 26.0846 30.3696 26.8286 29.3893 27.4149C28.409 28.0011 27.1665 28.2942 25.6619 28.2942H25.4225V31H24.7386V28.2604C23.4847 28.1477 22.3677 27.8095 21.3874 27.2458C20.4071 26.6595 19.6319 25.938 19.062 25.0812C18.5149 24.2018 18.1843 23.2886 18.0703 22.3416H18.7542C18.8454 23.0406 19.119 23.7734 19.5749 24.54C20.0309 25.3067 20.692 25.9831 21.5583 26.5693C22.4247 27.1556 23.4847 27.5163 24.7386 27.6516V16.1184C23.2568 15.69 22.0599 15.2728 21.148 14.867C20.2589 14.4386 19.5066 13.8185 18.891 13.0068C18.2755 12.1725 17.9677 11.0676 17.9677 9.69222C17.9677 8.04622 18.5263 6.69335 19.6433 5.63359C20.7832 4.5513 22.3905 4.01015 24.465 4.01015H24.7386V1H25.4225V4.04397C27.2007 4.22435 28.6028 4.8106 29.6287 5.8027C30.6774 6.79481 31.3385 7.91093 31.6121 9.15107H30.9282C30.6774 8.15896 30.096 7.21195 29.1841 6.31003C28.2722 5.38557 27.0184 4.83314 25.4225 4.65276V15.6449ZM18.6516 9.69222C18.6516 10.8873 18.9138 11.8568 19.4382 12.6009C19.9853 13.3224 20.6692 13.8861 21.4899 14.292C22.3335 14.6753 23.4163 15.0586 24.7386 15.4419V4.61894H24.465C22.7096 4.61894 21.2962 5.0699 20.2247 5.97181C19.176 6.85118 18.6516 8.09132 18.6516 9.69222ZM25.6619 27.6855C27.5541 27.6855 29.0018 27.1781 30.0048 26.1635C31.0079 25.1488 31.5095 23.8749 31.5095 22.3416C31.5095 21.1015 31.2359 20.0981 30.6888 19.3315C30.1416 18.5423 29.4463 17.9448 28.6028 17.5389C27.7821 17.1105 26.722 16.7046 25.4225 16.3213V27.6855H25.6619Z" stroke="#49B7C5" stroke-width="0.2"/>
</svg>
