<svg width="142" height="30" viewBox="0 0 142 30" fill="none" xmlns="http://www.w3.org/2000/svg">
<path d="M17.6429 1.82666C18.0053 2.1887 18.1865 2.64948 18.1865 3.22545V21.6731C18.1865 22.2326 17.9888 22.6933 17.61 23.0554C17.2311 23.4339 16.7369 23.6149 16.1438 23.6149C15.6167 23.6149 15.1554 23.4339 14.7765 23.0554C14.3977 22.6769 14.2 22.2161 14.2 21.6731V14.2348H3.98654V21.6731C3.98654 22.2326 3.78886 22.6933 3.37703 23.0554C2.96519 23.4339 2.50394 23.6149 1.9768 23.6149C1.40023 23.6149 0.922505 23.4339 0.560092 23.0554C0.181207 22.6769 0 22.2161 0 21.6731V3.22545C0 2.66593 0.19768 2.20516 0.576565 1.84312C0.955451 1.46462 1.44965 1.2836 2.04269 1.2836C2.56983 1.2836 3.03109 1.46462 3.40997 1.84312C3.78886 2.22161 3.98654 2.68239 3.98654 3.22545V10.565H14.1835V3.22545C14.1835 2.66593 14.3812 2.20516 14.793 1.84312C15.2049 1.46462 15.6661 1.2836 16.1933 1.2836C16.8028 1.2836 17.2805 1.46462 17.6429 1.82666Z" fill="#44BFDB"/>
<path d="M37.3781 15.9298C36.9992 16.2425 36.5545 16.407 36.0273 16.407H25.4844C25.748 17.6577 26.3246 18.6451 27.2471 19.3527C28.1696 20.0603 29.1909 20.4224 30.344 20.4224C31.2171 20.4224 31.8925 20.3401 32.3867 20.1755C32.8809 20.011 33.2598 19.8464 33.5563 19.6654C33.8364 19.4844 34.0341 19.3692 34.1494 19.3033C34.5283 19.1059 34.8907 19.0236 35.2366 19.0236C35.6814 19.0236 36.0603 19.1881 36.3897 19.5008C36.7027 19.8135 36.8675 20.192 36.8675 20.6199C36.8675 21.1958 36.5709 21.7224 35.9779 22.1832C35.3849 22.6769 34.5777 23.0883 33.5728 23.4339C32.5679 23.7795 31.5631 23.944 30.5417 23.944C28.7461 23.944 27.1976 23.5655 25.8633 22.825C24.529 22.0845 23.5076 21.0477 22.7828 19.7477C22.058 18.4476 21.6956 16.9665 21.6956 15.3209C21.6956 13.4942 22.0744 11.8815 22.8487 10.4992C23.6229 9.11684 24.6278 8.06363 25.8798 7.3231C27.1317 6.58256 28.4826 6.22052 29.9157 6.22052C31.316 6.22052 32.6503 6.59902 33.8858 7.37247C35.1378 8.14592 36.1262 9.16621 36.8675 10.4663C37.6088 11.7663 37.9876 13.1651 37.9876 14.6791C37.9712 15.2057 37.7735 15.6171 37.3781 15.9298ZM25.5338 13.2145H33.9023V12.9841C33.8199 12.0954 33.3751 11.322 32.5844 10.6802C31.7937 10.0384 30.9041 9.72573 29.8993 9.72573C27.4283 9.74218 25.9786 10.8941 25.5338 13.2145Z" fill="#44BFDB"/>
<path d="M44.7738 23.0718C44.3949 23.4503 43.9337 23.6314 43.39 23.6314C42.8629 23.6314 42.4016 23.4503 42.0392 23.0718C41.6768 22.6933 41.4956 22.2326 41.4956 21.6895V1.95831C41.4956 1.39879 41.6768 0.938013 42.0557 0.559516C42.4346 0.181019 42.8958 0 43.4395 0C43.9666 0 44.4114 0.181019 44.7738 0.559516C45.1362 0.938013 45.3174 1.39879 45.3174 1.95831V21.6895C45.3339 22.2326 45.1527 22.6933 44.7738 23.0718Z" fill="#44BFDB"/>
<path d="M62.6644 7.35601C63.8504 8.113 64.8059 9.16621 65.4978 10.4992C66.1896 11.8486 66.5356 13.3626 66.5356 15.0576C66.5356 16.7691 66.1896 18.283 65.5142 19.6325C64.8388 20.9819 63.8999 22.0351 62.7138 22.7921C61.5277 23.5491 60.2263 23.9276 58.7931 23.9276C57.7718 23.9276 56.7999 23.7137 55.8938 23.3022C54.9878 22.8908 54.23 22.3807 53.637 21.7883V28.0417C53.637 28.6012 53.4558 29.062 53.0934 29.424C52.731 29.7861 52.2697 29.9835 51.7261 29.9835C51.166 29.9835 50.7212 29.8025 50.3588 29.4405C49.9964 29.0784 49.8152 28.6177 49.8152 28.0417V8.4915C49.8152 7.93198 49.9964 7.4712 50.3588 7.10916C50.7212 6.73067 51.1825 6.54965 51.7261 6.54965C52.2862 6.54965 52.731 6.73067 53.0934 7.10916C53.4558 7.48766 53.637 7.94844 53.637 8.4915V8.62315C54.1477 7.98135 54.856 7.42183 55.7785 6.9446C56.701 6.46736 57.6565 6.22052 58.6613 6.22052C60.1275 6.23698 61.4618 6.61547 62.6644 7.35601ZM61.5442 18.9084C62.4173 17.8881 62.8456 16.6045 62.8456 15.0741C62.8456 13.5436 62.4173 12.2765 61.5442 11.2562C60.6876 10.2523 59.5509 9.74218 58.1671 9.74218C56.7834 9.74218 55.6467 10.2523 54.7736 11.2562C53.9006 12.26 53.4723 13.5436 53.4723 15.0741C53.4723 16.6045 53.9006 17.8881 54.7736 18.9084C55.6467 19.9287 56.7834 20.4388 58.1671 20.4388C59.5509 20.4388 60.6711 19.9287 61.5442 18.9084Z" fill="#44BFDB"/>
<path d="M83.7833 7.10918C84.1457 7.48767 84.3269 7.94845 84.3269 8.49151V22.0516C84.3269 24.8162 83.5856 26.8404 82.0865 28.1075C80.5875 29.3747 78.6107 30 76.1067 30C75.3819 30 74.6406 29.9342 73.8828 29.819C73.1251 29.7038 72.5155 29.5557 72.0378 29.3582C71 28.9139 70.4729 28.2885 70.4729 27.4986C70.4729 27.3505 70.5058 27.186 70.5717 26.9885C70.7035 26.5277 70.9176 26.1657 71.2306 25.9188C71.5436 25.672 71.8731 25.5568 72.2355 25.5568C72.4497 25.5568 72.6473 25.5897 72.845 25.6555C72.9933 25.7213 73.2568 25.8201 73.6193 25.9682C73.9981 26.1163 74.3935 26.2315 74.8053 26.3302C75.2172 26.429 75.6455 26.4783 76.0903 26.4783C77.6058 26.4783 78.7095 26.1492 79.4343 25.5074C80.1427 24.8656 80.5051 23.7466 80.5051 22.1668V21.8541C79.4014 23.2364 77.6717 23.9276 75.3325 23.9276C74.2288 23.9276 73.2404 23.6643 72.4002 23.1377C71.5436 22.6111 70.8847 21.887 70.4234 20.9655C69.9622 20.0439 69.7151 18.9742 69.7151 17.7894V8.47506C69.7151 7.91554 69.8963 7.45476 70.2587 7.09272C70.6211 6.71422 71.0824 6.5332 71.626 6.5332C72.1861 6.5332 72.6309 6.71422 72.9933 7.09272C73.3557 7.47122 73.5369 7.932 73.5369 8.47506V16.6539C73.5369 17.9868 73.8334 18.9578 74.41 19.5502C75.003 20.1426 75.8596 20.4224 76.9798 20.4224C78.0835 20.4224 78.9401 20.0933 79.5496 19.4515C80.1592 18.8097 80.4557 17.8717 80.4557 16.6539V8.47506C80.4557 7.91554 80.6369 7.45476 80.9993 7.09272C81.3617 6.71422 81.823 6.5332 82.3666 6.5332C82.9596 6.54966 83.4209 6.73068 83.7833 7.10918Z" fill="#44BFDB"/>
<path d="M104.985 13.2803C105.693 14.2019 106.055 15.3703 106.055 16.8184C106.055 19.3527 105.331 21.1135 103.881 22.1174C102.431 23.1212 100.702 23.6149 98.7083 23.6149H90.7517C90.1916 23.6149 89.7304 23.4339 89.368 23.0554C88.9891 22.6769 88.8079 22.2161 88.8079 21.6731V3.22545C88.8079 2.66593 88.9891 2.20516 89.368 1.84312C89.7468 1.46462 90.2081 1.2836 90.7517 1.2836H98.8072C102.86 1.2836 104.886 3.17608 104.886 6.96105C104.886 7.91552 104.655 8.77125 104.194 9.49533C103.733 10.2359 103.074 10.8118 102.234 11.2397C103.354 11.684 104.276 12.3752 104.985 13.2803ZM100.059 5.71037C99.6308 5.26604 99.0048 5.05211 98.2141 5.05211H92.9427V10.0384H98.313C98.9554 10.0384 99.5155 9.82446 99.9932 9.39659C100.471 8.96873 100.718 8.39276 100.718 7.66867C100.718 6.79649 100.504 6.13823 100.059 5.71037ZM101.048 19.1552C101.608 18.6286 101.888 17.8387 101.888 16.8184C101.888 15.5677 101.558 14.7449 100.899 14.3664C100.24 13.9879 99.4331 13.7905 98.4777 13.7905H92.9427V19.9451H98.6918C99.6967 19.9616 100.487 19.6818 101.048 19.1552Z" fill="#44BFDB"/>
<path d="M124.653 19.6818C123.879 21.0313 122.841 22.0845 121.507 22.825C120.173 23.5655 118.706 23.944 117.109 23.944C115.494 23.944 114.028 23.5655 112.694 22.825C111.376 22.0845 110.322 21.0313 109.564 19.6818C108.79 18.3324 108.411 16.802 108.411 15.107C108.411 13.3955 108.79 11.8815 109.564 10.5321C110.338 9.18266 111.376 8.12945 112.694 7.37246C114.012 6.61547 115.478 6.23697 117.109 6.23697C118.706 6.23697 120.173 6.61547 121.507 7.37246C122.841 8.12945 123.896 9.18266 124.653 10.5321C125.428 11.8815 125.806 13.412 125.806 15.107C125.806 16.802 125.428 18.3324 124.653 19.6818ZM121.309 12.3094C120.864 11.4866 120.288 10.8612 119.547 10.4169C118.805 9.97257 117.998 9.74218 117.109 9.74218C116.219 9.74218 115.395 9.95611 114.67 10.4169C113.929 10.8612 113.353 11.503 112.908 12.3094C112.48 13.1322 112.249 14.0538 112.249 15.107C112.249 16.1437 112.463 17.0817 112.908 17.8881C113.336 18.6945 113.929 19.3198 114.67 19.7641C115.412 20.2084 116.219 20.4388 117.109 20.4388C117.998 20.4388 118.822 20.2084 119.547 19.7641C120.288 19.3198 120.864 18.6945 121.309 17.8881C121.738 17.0817 121.968 16.1602 121.968 15.107C121.968 14.0538 121.754 13.1322 121.309 12.3094Z" fill="#44BFDB"/>
<path d="M142 21.7389C142 22.2655 141.802 22.7263 141.391 23.1048C140.979 23.4833 140.534 23.6807 140.056 23.6807C139.43 23.6807 138.92 23.401 138.491 22.8579L134.653 18.102L130.914 22.8579C130.716 23.1048 130.485 23.3187 130.222 23.4504C129.958 23.582 129.678 23.6643 129.382 23.6643C128.937 23.6643 128.508 23.4997 128.097 23.1541C127.685 22.8086 127.487 22.4136 127.487 21.9693C127.487 21.5414 127.652 21.1465 127.965 20.7515L132.413 15.3209L127.817 9.61054C127.537 9.26495 127.405 8.88646 127.405 8.45859C127.405 7.93199 127.602 7.47121 127.998 7.10917C128.393 6.73067 128.838 6.54965 129.349 6.54965C129.958 6.54965 130.485 6.81295 130.914 7.33956L134.851 12.2271L138.491 7.40538C138.887 6.82941 139.414 6.54965 140.023 6.54965C140.534 6.54965 140.962 6.73067 141.325 7.07626C141.671 7.42184 141.852 7.83325 141.852 8.27757C141.852 8.73835 141.704 9.16622 141.407 9.52826L136.992 14.893L141.588 20.6034C141.868 20.9325 142 21.311 142 21.7389Z" fill="#44BFDB"/>
</svg>
