<svg width="87" height="71" viewBox="0 0 87 71" fill="none" xmlns="http://www.w3.org/2000/svg">
<path fill-rule="evenodd" clip-rule="evenodd" d="M81.9881 1.01429H10.9882C9.21427 1.01429 7.77625 2.45231 7.77625 4.22619V54.9405C7.77625 56.7144 9.21427 58.1524 10.9882 58.1524H81.9881C83.762 58.1524 85.2001 56.7144 85.2001 54.9405V4.22619C85.2001 2.4523 83.762 1.01429 81.9881 1.01429ZM10.9882 0C8.65409 0 6.76196 1.89213 6.76196 4.22619V54.9405C6.76196 57.2745 8.65409 59.1667 10.9882 59.1667H81.9881C84.3222 59.1667 86.2143 57.2745 86.2143 54.9405V4.22619C86.2143 1.89213 84.3222 0 81.9881 0H10.9882Z" fill="white"/>
<path fill-rule="evenodd" clip-rule="evenodd" d="M54.4335 59.2511H38.0358V58.2368H55.4477V58.744C55.4477 61.3933 55.448 63.3527 55.5521 64.8162C55.6572 66.2946 55.8647 67.1712 56.213 67.7154C56.5318 68.2136 57.0107 68.4938 57.88 68.6447C58.7775 68.8005 59.9929 68.8023 61.7025 68.8023V69.8166H61.6517C61.6221 69.8166 61.5927 69.8166 61.5634 69.8166H31.6965V68.8023H55.805C55.6399 68.6476 55.491 68.4688 55.3587 68.2621C54.8617 67.4856 54.6465 66.3812 54.5404 64.8881C54.4401 63.4783 54.4339 61.6364 54.4335 59.2511Z" fill="white"/>
<path fill-rule="evenodd" clip-rule="evenodd" d="M39.3876 59.2511H55.7856V58.2368H38.3737V58.744C38.3737 61.3871 38.3418 63.3469 38.212 64.8072C38.081 66.2805 37.855 67.1706 37.5178 67.7253C37.2075 68.2357 36.777 68.5029 36.0693 68.6475C35.3231 68.7999 34.3375 68.8023 32.9642 68.8023V69.8166L33.0168 69.8166C34.3249 69.8166 35.4136 69.8166 36.2723 69.6412C37.1812 69.4556 37.8918 69.0625 38.3845 68.2522C38.8502 67.4862 39.0891 66.3953 39.2223 64.897C39.3479 63.4841 39.3835 61.642 39.3876 59.2511Z" fill="white"/>
<path d="M0 35.5001C0 33.1661 1.89213 31.2739 4.22619 31.2739H21.131C23.465 31.2739 25.3571 33.1661 25.3571 35.5001V66.7739C25.3571 69.108 23.465 71.0001 21.131 71.0001H4.22619C1.89213 71.0001 0 69.108 0 66.7739V35.5001Z" fill="#6ABF8C"/>
<path fill-rule="evenodd" clip-rule="evenodd" d="M21.131 32.2882H4.22619C2.4523 32.2882 1.01429 33.7262 1.01429 35.5001V66.7739C1.01429 68.5478 2.4523 69.9858 4.22619 69.9858H21.131C22.9048 69.9858 24.3429 68.5478 24.3429 66.7739V35.5001C24.3429 33.7262 22.9048 32.2882 21.131 32.2882ZM4.22619 31.2739C1.89213 31.2739 0 33.1661 0 35.5001V66.7739C0 69.108 1.89213 71.0001 4.22619 71.0001H21.131C23.465 71.0001 25.3571 69.108 25.3571 66.7739V35.5001C25.3571 33.1661 23.465 31.2739 21.131 31.2739H4.22619Z" fill="white"/>
<path fill-rule="evenodd" clip-rule="evenodd" d="M12.6787 65.7595C12.3052 65.7595 12.0025 65.4567 12.0025 65.0833C12.0025 64.7098 12.3052 64.4071 12.6787 64.4071C13.0521 64.4071 13.3549 64.7098 13.3549 65.0833C13.3549 65.4567 13.0521 65.7595 12.6787 65.7595ZM12.6787 66.7738C11.745 66.7738 10.9882 66.0169 10.9882 65.0833C10.9882 64.1497 11.745 63.3928 12.6787 63.3928C13.6123 63.3928 14.3691 64.1497 14.3691 65.0833C14.3691 66.0169 13.6123 66.7738 12.6787 66.7738Z" fill="white"/>
</svg>
