<svg width="86" height="71" viewBox="0 0 86 71" fill="none" xmlns="http://www.w3.org/2000/svg">
<path d="M42 24V41" stroke="white" stroke-width="1.2"/>
<path d="M34 32L51 32" stroke="white" stroke-width="1.2"/>
<mask id="path-3-inside-1" fill="white">
<path fill-rule="evenodd" clip-rule="evenodd" d="M32.7429 0C14.6595 0 0 14.6595 0 32.7428C0 43.2463 4.94563 52.5946 12.6352 58.5861L9.55406 70.9999L30.4132 65.4041C31.1827 65.4582 31.9596 65.4857 32.7429 65.4857H53.2571C71.3405 65.4857 86 50.8262 86 32.7428C86 14.6595 71.3405 0 53.2571 0H32.7429Z"/>
</mask>
<path d="M12.6352 58.5861L13.7999 58.8752L13.9877 58.1187L13.3728 57.6396L12.6352 58.5861ZM9.55406 70.9999L8.3894 70.7108L7.89908 72.6863L9.86499 72.1589L9.55406 70.9999ZM30.4132 65.4041L30.4974 64.2071L30.2966 64.1929L30.1023 64.2451L30.4132 65.4041ZM1.2 32.7428C1.2 15.3222 15.3222 1.2 32.7429 1.2V-1.2C13.9967 -1.2 -1.2 13.9967 -1.2 32.7428H1.2ZM13.3728 57.6396C5.96244 51.8656 1.2 42.8607 1.2 32.7428H-1.2C-1.2 43.6319 3.92883 53.3236 11.8977 59.5327L13.3728 57.6396ZM11.4706 58.2971L8.3894 70.7108L10.7187 71.289L13.7999 58.8752L11.4706 58.2971ZM9.86499 72.1589L30.7241 66.5631L30.1023 64.2451L9.24314 69.8409L9.86499 72.1589ZM32.7429 64.2857C31.9877 64.2857 31.2389 64.2592 30.4974 64.2071L30.3291 66.6011C31.1266 66.6572 31.9315 66.6857 32.7429 66.6857V64.2857ZM53.2571 64.2857H32.7429V66.6857H53.2571V64.2857ZM84.8 32.7428C84.8 50.1635 70.6778 64.2857 53.2571 64.2857V66.6857C72.0033 66.6857 87.2 51.489 87.2 32.7428H84.8ZM53.2571 1.2C70.6778 1.2 84.8 15.3222 84.8 32.7428H87.2C87.2 13.9967 72.0033 -1.2 53.2571 -1.2V1.2ZM32.7429 1.2H53.2571V-1.2H32.7429V1.2Z" fill="white" mask="url(#path-3-inside-1)"/>
</svg>
