<svg width="135" height="45" viewBox="0 0 135 45" fill="none" xmlns="http://www.w3.org/2000/svg">
<path d="M134.974 38.1906C134.974 41.4897 132.308 44.1554 129.009 44.1554H5.96481C2.66569 44.1554 0 41.4897 0 38.1906V5.96482C0 2.6657 2.66569 0 5.96481 0H129.035C132.334 0 135 2.6657 135 5.96482V38.1906H134.974Z" fill="black"/>
<path d="M23.3051 7.5484H12.2992C10.9795 7.5484 9.92383 8.60412 9.92383 9.92377V34.2845C9.92383 35.6041 10.9795 36.6598 12.2992 36.6598H23.3051C24.6247 36.6598 25.6804 35.6041 25.6804 34.2845V9.92377C25.6804 8.63051 24.6247 7.5484 23.3051 7.5484ZM17.7889 34.9443C16.918 34.9443 16.2054 34.2317 16.2054 33.3607C16.2054 32.4897 16.918 31.7771 17.7889 31.7771C18.6599 31.7771 19.3725 32.4897 19.3725 33.3607C19.3989 34.2317 18.6863 34.9443 17.7889 34.9443ZM23.8065 30.9853H11.7977V13.0117H23.8065V30.9853Z" fill="white"/>
<path d="M34.6807 11.9032L34.0209 13.9355H33.1499L35.3405 7.49561H36.3434L38.5341 13.9355H37.6367L36.9505 11.9032H34.6807ZM36.7921 11.2434L36.1587 9.3959C36.0267 8.97361 35.9212 8.60411 35.842 8.23461H35.8156C35.7364 8.60411 35.6308 9.00001 35.4989 9.3959L34.8654 11.2698H36.7921V11.2434Z" fill="white"/>
<path d="M39.4052 9.29034L40.3026 11.8769C40.4609 12.2991 40.5929 12.695 40.6721 13.0645H40.6985C40.804 12.695 40.936 12.2991 41.0943 11.8769L41.9917 9.29034H42.8627L41.0416 13.9091H40.2498L38.4814 9.29034H39.4052Z" fill="white"/>
<path d="M46.7423 12.827C46.7423 13.2229 46.7687 13.6188 46.8215 13.9355H46.0561L45.9769 13.3549H45.9505C45.713 13.7244 45.1851 14.0411 44.5253 14.0411C43.6016 14.0411 43.1001 13.3812 43.1001 12.7214C43.1001 11.6129 44.103 11.0059 45.8714 11.0059V10.9003C45.8714 10.5308 45.7658 9.81821 44.8156 9.8446C44.367 9.8446 43.9183 9.97656 43.6016 10.1877L43.4168 9.63344C43.7863 9.39591 44.367 9.23755 44.9476 9.23755C46.3728 9.23755 46.7159 10.2141 46.7159 11.1378V12.827H46.7423ZM45.9241 11.5601C45.0004 11.5337 43.9711 11.6921 43.9711 12.5895C43.9711 13.1437 44.3406 13.3812 44.7629 13.3812C45.3699 13.3812 45.7658 13.0118 45.8978 12.6159C45.9241 12.5367 45.9241 12.4311 45.9241 12.3519V11.5601Z" fill="white"/>
<path d="M48.4575 8.44581C48.1408 8.44581 47.9297 8.20828 47.9297 7.89157C47.9297 7.60125 48.1408 7.36371 48.4839 7.36371C48.8007 7.36371 49.0118 7.60125 49.0118 7.89157C49.0118 8.20828 48.8007 8.44581 48.4575 8.44581ZM48.0617 13.9356V9.31679H48.9062V13.9356H48.0617Z" fill="white"/>
<path d="M50.2261 7.15253H51.0707V13.9355H50.2261V7.15253Z" fill="white"/>
<path d="M55.6894 12.827C55.6894 13.2229 55.7157 13.6188 55.7685 13.9355H55.0031L54.924 13.3549H54.8976C54.66 13.7244 54.1322 14.0411 53.4723 14.0411C52.5486 14.0411 52.0471 13.3812 52.0471 12.7214C52.0471 11.6129 53.0501 11.0059 54.8184 11.0059V10.9003C54.8184 10.5308 54.7128 9.81821 53.7627 9.8446C53.314 9.8446 52.8653 9.97656 52.5486 10.1877L52.3638 9.63344C52.7333 9.39591 53.314 9.23755 53.8946 9.23755C55.3198 9.23755 55.663 10.2141 55.663 11.1378V12.827H55.6894ZM54.8712 11.5601C53.9474 11.5337 52.9181 11.6921 52.9181 12.5895C52.9181 13.1437 53.2876 13.3812 53.7099 13.3812C54.3169 13.3812 54.7128 13.0118 54.8448 12.6159C54.8712 12.5367 54.8712 12.4311 54.8712 12.3519V11.5601Z" fill="white"/>
<path d="M56.9827 7.15253H57.8273V10.0558H57.8537C58.144 9.52789 58.6718 9.21117 59.4372 9.21117C60.5721 9.21117 61.3903 10.1613 61.3903 11.5602C61.3903 13.2229 60.3346 14.0411 59.3053 14.0411C58.6454 14.0411 58.1176 13.7772 57.7481 13.1701H57.7217L57.6689 13.9355H56.9563C56.9827 13.6188 56.9827 13.1437 56.9827 12.7478V7.15253ZM57.8273 12.0616C57.8273 12.1672 57.8273 12.2728 57.8537 12.3783C58.012 12.959 58.5135 13.3549 59.1205 13.3549C60.0179 13.3549 60.5193 12.6423 60.5193 11.5865C60.5193 10.6628 60.0443 9.871 59.1469 9.871C58.5663 9.871 58.0384 10.2669 57.8801 10.9003C57.8537 11.0059 57.8273 11.1115 57.8273 11.2434V12.0616Z" fill="white"/>
<path d="M62.3669 7.15253H63.2115V13.9355H62.3669V7.15253Z" fill="white"/>
<path d="M65.0325 11.7449C65.0589 12.8798 65.7715 13.3549 66.6161 13.3549C67.2232 13.3549 67.5927 13.2493 67.883 13.1173L68.0413 13.698C67.751 13.8299 67.2232 13.9883 66.4842 13.9883C65.0589 13.9883 64.2144 13.0382 64.2144 11.6657C64.2144 10.2669 65.0325 9.15839 66.405 9.15839C67.9094 9.15839 68.3053 10.478 68.3053 11.3226C68.3053 11.5074 68.3053 11.6393 68.2789 11.7185L65.0325 11.7449ZM67.4871 11.1643C67.4871 10.6364 67.2759 9.79182 66.3258 9.79182C65.4548 9.79182 65.1117 10.5836 65.0325 11.1643H67.4871Z" fill="white"/>
<path d="M73.1352 14.0411C71.8948 14.0411 70.9182 13.1173 70.9182 11.6657C70.9182 10.1085 71.9475 9.21118 73.2144 9.21118C74.5341 9.21118 75.4314 10.1877 75.4314 11.5865C75.4314 13.2757 74.2437 14.0411 73.1352 14.0411ZM73.1616 13.4077C73.9534 13.4077 74.5604 12.6423 74.5604 11.6129C74.5604 10.8211 74.1645 9.84462 73.188 9.84462C72.2115 9.84462 71.7628 10.7684 71.7628 11.6393C71.7892 12.6423 72.3434 13.4077 73.1616 13.4077Z" fill="white"/>
<path d="M76.4607 10.5572C76.4607 10.0821 76.4607 9.68626 76.408 9.31676H77.147L77.1997 10.0821H77.2261C77.4637 9.65986 77.9915 9.21118 78.7569 9.21118C79.3904 9.21118 80.3933 9.58068 80.3933 11.1907V13.9619H79.5487V11.2962C79.5487 10.5572 79.2848 9.92379 78.4666 9.92379C77.9124 9.92379 77.4901 10.3197 77.3317 10.7948C77.3053 10.9003 77.2789 11.0587 77.2789 11.1907V13.9883H76.4343V10.5572H76.4607Z" fill="white"/>
<path d="M84.6953 8.18182V9.29033H85.9094V9.92377H84.6953V12.4047C84.6953 12.9853 84.8537 13.3021 85.3288 13.3021C85.5663 13.3021 85.6983 13.2757 85.8038 13.2493L85.8302 13.8827C85.6719 13.9355 85.408 13.9883 85.0912 13.9883C84.6953 13.9883 84.3786 13.8563 84.1939 13.6452C83.9563 13.3812 83.8772 12.9854 83.8772 12.4311V9.89737H83.1646V9.26394H83.8772V8.41937L84.6953 8.18182Z" fill="white"/>
<path d="M86.8064 7.15253H87.651V10.0294H87.6774C87.8093 9.79181 88.0205 9.58068 88.2844 9.44872C88.5219 9.29036 88.8387 9.21117 89.1554 9.21117C89.7624 9.21117 90.7653 9.58068 90.7653 11.1906V13.9355H89.9208V11.2698C89.9208 10.5044 89.6304 9.89739 88.8386 9.89739C88.2844 9.89739 87.8621 10.2669 87.7038 10.742C87.651 10.8475 87.651 10.9795 87.651 11.1379V13.9355H86.8064V7.15253Z" fill="white"/>
<path d="M92.5337 11.7449C92.5601 12.8798 93.2727 13.3549 94.1173 13.3549C94.7243 13.3549 95.0939 13.2493 95.4106 13.1173L95.5689 13.698C95.2786 13.8299 94.7507 13.9883 94.0117 13.9883C92.5865 13.9883 91.7419 13.0382 91.7419 11.6657C91.7419 10.2669 92.5601 9.15839 93.9062 9.15839C95.4106 9.15839 95.8065 10.478 95.8065 11.3226C95.8065 11.5074 95.8065 11.6393 95.7801 11.7185L92.5337 11.7449ZM94.9883 11.1643C94.9883 10.6364 94.7771 9.79182 93.827 9.79182C92.956 9.79182 92.6129 10.5836 92.5337 11.1643H94.9883Z" fill="white"/>
<path d="M99.1587 8.44581C98.842 8.44581 98.6309 8.20828 98.6309 7.89157C98.6309 7.60125 98.842 7.36371 99.1851 7.36371C99.5018 7.36371 99.713 7.60125 99.713 7.89157C99.713 8.20828 99.5018 8.44581 99.1587 8.44581ZM98.7628 13.9356V9.31679H99.6074V13.9356H98.7628Z" fill="white"/>
<path d="M100.98 7.57484C101.376 7.49566 101.904 7.44287 102.564 7.44287C103.382 7.44287 103.989 7.62762 104.358 7.97073C104.701 8.28745 104.939 8.73614 104.939 9.31678C104.939 9.89743 104.754 10.3461 104.437 10.6892C103.989 11.1643 103.276 11.4018 102.458 11.4018C102.22 11.4018 101.983 11.4018 101.798 11.349V13.9355H100.98V7.57484ZM101.798 10.6628C101.983 10.7156 102.22 10.742 102.484 10.742C103.487 10.742 104.094 10.2405 104.094 9.36955C104.094 8.49859 103.487 8.1027 102.564 8.1027C102.194 8.1027 101.93 8.12908 101.772 8.18187V10.6628H101.798Z" fill="white"/>
<path d="M105.941 7.15253H106.786V10.0294H106.812C106.944 9.79181 107.155 9.58068 107.419 9.44872C107.657 9.29036 107.974 9.21117 108.29 9.21117C108.924 9.21117 109.9 9.58068 109.9 11.1906V13.9355H109.056V11.2698C109.056 10.5044 108.765 9.89739 107.974 9.89739C107.419 9.89739 106.997 10.2669 106.839 10.742C106.786 10.8475 106.786 10.9795 106.786 11.1379V13.9355H105.941V7.15253Z" fill="white"/>
<path d="M113.068 14.0411C111.827 14.0411 110.851 13.1173 110.851 11.6657C110.851 10.1085 111.88 9.21118 113.147 9.21118C114.466 9.21118 115.364 10.1877 115.364 11.5865C115.364 13.2757 114.176 14.0411 113.068 14.0411ZM113.094 13.4077C113.886 13.4077 114.493 12.6423 114.493 11.6129C114.493 10.8211 114.097 9.84462 113.12 9.84462C112.144 9.84462 111.695 10.7684 111.695 11.6393C111.695 12.6423 112.276 13.4077 113.094 13.4077Z" fill="white"/>
<path d="M116.367 10.5572C116.367 10.0821 116.367 9.68626 116.341 9.31676H117.08L117.132 10.0821H117.159C117.396 9.65986 117.924 9.21118 118.69 9.21118C119.323 9.21118 120.326 9.58068 120.326 11.1907V13.9619H119.481V11.2962C119.481 10.5572 119.191 9.92379 118.399 9.92379C117.845 9.92379 117.423 10.3197 117.264 10.7948C117.238 10.9003 117.212 11.0587 117.212 11.1907V13.9883H116.367V10.5572Z" fill="white"/>
<path d="M122.094 11.7449C122.12 12.8798 122.833 13.3549 123.678 13.3549C124.285 13.3549 124.654 13.2493 124.944 13.1173L125.103 13.698C124.813 13.8299 124.285 13.9883 123.546 13.9883C122.12 13.9883 121.276 13.0382 121.276 11.6657C121.276 10.2669 122.094 9.15839 123.44 9.15839C124.945 9.15839 125.34 10.478 125.34 11.3226C125.34 11.5074 125.34 11.6393 125.314 11.7185L122.094 11.7449ZM124.549 11.1643C124.549 10.6364 124.337 9.79182 123.387 9.79182C122.516 9.79182 122.173 10.5836 122.094 11.1643H124.549Z" fill="white"/>
<path d="M38.6391 18.2903L32.991 34.9443H35.5775L37.2666 29.8241H42.7564L44.4983 34.9443H47.164L41.4895 18.2903H38.6391ZM39.9851 21.0352C40.1699 21.7742 40.381 22.5396 40.6449 23.3842L42.1757 27.7918H37.8209L39.3253 23.3314C39.5628 22.6188 39.8004 21.8534 39.9851 21.0352Z" fill="white"/>
<path d="M54.4748 22.5924C52.7592 22.5924 51.3868 23.2522 50.463 24.5191L50.3575 22.8563H48.0613L48.0877 23.0675C48.1669 24.0968 48.1932 25.2317 48.1932 26.8681V39.7214H50.727V33.7302C51.5188 34.654 52.7592 35.2082 54.1845 35.2082C55.6625 35.2082 57.0085 34.6276 58.0114 33.5719C59.1199 32.4106 59.7006 30.7214 59.7006 28.7156C59.7006 26.9472 59.1991 25.4164 58.2226 24.2815C57.246 23.1994 55.9264 22.5924 54.4748 22.5924ZM53.8413 24.6774C56.0847 24.6774 57.0877 26.7625 57.0877 28.8211C57.0877 31.4868 55.7944 33.1232 53.7358 33.1232C52.3369 33.1232 51.0965 32.1731 50.7534 30.7742C50.7006 30.5631 50.6742 30.2727 50.6742 29.956V27.9238C50.6742 27.739 50.727 27.5279 50.7534 27.2904C50.7534 27.2112 50.7798 27.1584 50.7798 27.0792C51.1757 25.7068 52.4425 24.6774 53.8413 24.6774Z" fill="white"/>
<path d="M67.4599 22.5924C65.7443 22.5924 64.3719 23.2522 63.4481 24.5191L63.3426 22.8563H61.0464V23.0675C61.1256 24.0968 61.152 25.2317 61.152 26.8681V39.7214H63.6857V33.7302C64.4775 34.654 65.7179 35.2082 67.1432 35.2082C68.6212 35.2082 69.9672 34.6276 70.9701 33.5719C72.0786 32.4106 72.6593 30.7214 72.6593 28.7156C72.6593 26.9472 72.1578 25.4164 71.1813 24.2815C70.2311 23.1994 68.9115 22.5924 67.4599 22.5924ZM66.8264 24.6774C69.0698 24.6774 70.0728 26.7625 70.0728 28.8211C70.0728 31.4868 68.7795 33.1232 66.7209 33.1232C65.322 33.1232 64.0816 32.1731 63.7385 30.7742C63.6857 30.5631 63.6593 30.2727 63.6593 29.956V27.9238C63.6593 27.739 63.7121 27.5279 63.7385 27.2904C63.7385 27.2112 63.7649 27.1584 63.7649 27.0792C64.1608 25.7068 65.4276 24.6774 66.8264 24.6774Z" fill="white"/>
<path d="M83.7182 25.3372C81.3693 24.4135 80.6039 23.7009 80.6039 22.3812C80.6039 21.2727 81.5012 20.1378 83.4807 20.1378C85.1171 20.1378 86.1728 20.7185 86.4367 20.8768L86.6479 21.0088L87.3605 18.8974L87.2285 18.8182C86.8062 18.5807 85.5921 18 83.5599 18C80.3399 18 78.0966 19.9003 78.0966 22.6188C78.0966 24.8094 79.4954 26.3402 82.5306 27.4487C84.6684 28.2405 85.4602 29.0586 85.4602 30.4839C85.4602 32.0674 84.2197 33.0704 82.2666 33.0704C80.9734 33.0704 79.6537 32.7009 78.6244 32.0411L78.4133 31.9091L77.7271 34.0733L77.859 34.1525C78.8092 34.7859 80.6039 35.261 82.1083 35.261C86.4367 35.261 87.9675 32.6217 87.9675 30.3519C87.9939 27.9765 86.7534 26.5249 83.7182 25.3372Z" fill="white"/>
<path d="M92.5335 20.0059L90.0526 20.7712V22.8563H88.2314V24.8622H90.0526V31.0381C90.0526 32.5425 90.3429 33.5718 90.9235 34.2317C91.4778 34.8387 92.3487 35.1818 93.3517 35.1818C94.3018 35.1818 94.988 34.9971 95.3048 34.8915L95.4367 34.8387L95.3048 32.8328L95.0672 32.912C94.7505 33.0176 94.4338 33.044 93.9059 33.044C92.9294 33.044 92.5071 32.4369 92.5071 30.9853V24.8886H95.5423V22.8827H92.5071V20.0059H92.5335Z" fill="white"/>
<path d="M101.824 22.5924C98.2873 22.5924 95.8328 25.2317 95.8328 29.0059C95.8328 32.6745 98.2081 35.2082 101.639 35.2082H101.666C104.542 35.2082 107.657 33.2024 107.657 28.7948C107.657 27 107.103 25.4692 106.047 24.3343C104.965 23.1994 103.513 22.5924 101.824 22.5924ZM101.745 24.5983C104.015 24.5983 105.044 26.8153 105.044 28.8739C105.044 31.4077 103.645 33.2288 101.692 33.2288H101.666C99.7653 33.2288 98.3665 31.434 98.3665 28.9267C98.3665 26.7625 99.4222 24.5983 101.745 24.5983Z" fill="white"/>
<path d="M115.363 22.7244L115.205 22.698C114.994 22.6452 114.809 22.6188 114.572 22.6188C113.252 22.6188 112.064 23.3842 111.404 24.651L111.325 22.8827H109.082L109.108 23.0938C109.187 24.0968 109.214 25.2053 109.214 26.7361L109.187 34.9707H111.721V28.5572C111.721 28.2141 111.747 27.871 111.8 27.5806C112.091 26.0499 113.12 25.0469 114.466 25.0469C114.73 25.0469 114.915 25.0733 115.152 25.0997L115.416 25.1261V22.7244H115.363Z" fill="white"/>
<path d="M121.038 22.566C117.686 22.566 115.337 25.2581 115.337 29.085C115.337 32.7801 117.66 35.1818 121.276 35.1818C123.176 35.1818 124.496 34.7595 125.261 34.4164L125.419 34.3372L124.944 32.4633L124.733 32.5425C124.047 32.8329 123.123 33.0968 121.566 33.0968C120.457 33.0968 117.95 32.7273 117.792 29.4281L125.921 29.4546L125.947 29.2962C126 29.0323 126.026 28.6891 126.026 28.2405C126.026 25.654 124.707 22.566 121.038 22.566ZM120.853 24.4927C121.619 24.4927 122.252 24.7302 122.701 25.2053C123.413 25.9443 123.545 27.0264 123.572 27.5543H117.818C118.056 26.1026 118.979 24.4927 120.853 24.4927Z" fill="white"/>
</svg>
