<svg width="102" height="73" viewBox="0 0 102 73" fill="none" xmlns="http://www.w3.org/2000/svg">
<path d="M44.0565 11.4654C22.434 8.73192 17.2379 24.4079 17.3426 32.5875C11.2665 31.7592 0.999982 40.6226 1 51.5353C1.00002 66.1344 12.5236 72.1397 17.3426 71.7256C37.7709 71.9327 79.696 72.2226 83.9702 71.7256C89.313 71.1043 94.551 67.0663 98.7414 59.3008C102.932 51.5353 102.513 32.5875 86.7987 27.6176C86.4844 10.8441 76.1132 3.38926 70.7704 1.83616C65.4276 0.283059 50.3421 -0.33818 44.0565 11.4654Z" stroke="white" stroke-width="1.2"/>
<path d="M45 49.1182L50.8727 57.5091" stroke="white" stroke-width="1.2"/>
<path d="M50.8728 25.2363V57.5091L56.7455 49.1181" stroke="white" stroke-width="1.2" stroke-linejoin="round"/>
</svg>
