<svg width="32" height="30" viewBox="0 0 32 30" fill="none" xmlns="http://www.w3.org/2000/svg">
<mask id="path-1-inside-1" fill="white">
<path d="M20.2041 7.61663C20.2041 3.41008 16.794 0 12.5875 0H7.61662C3.41007 0 -9.53674e-06 3.41008 -9.53674e-06 7.61663C-9.53674e-06 11.8232 3.41007 15.2333 7.61662 15.2333H12.5875C16.794 15.2333 20.2041 11.8232 20.2041 7.61663Z"/>
</mask>
<path d="M12.5875 1H7.61662V-1H12.5875V1ZM7.61662 14.2333H12.5875V16.2333H7.61662V14.2333ZM12.5875 14.2333C16.2417 14.2333 19.2041 11.2709 19.2041 7.61663H21.2041C21.2041 12.3755 17.3463 16.2333 12.5875 16.2333V14.2333ZM0.99999 7.61663C0.99999 11.2709 3.96235 14.2333 7.61662 14.2333V16.2333C2.85778 16.2333 -1.00001 12.3755 -1.00001 7.61663H0.99999ZM7.61662 1C3.96236 1 0.99999 3.96237 0.99999 7.61663H-1.00001C-1.00001 2.8578 2.85779 -1 7.61662 -1V1ZM12.5875 -1C17.3463 -1 21.2041 2.8578 21.2041 7.61663H19.2041C19.2041 3.96237 16.2417 1 12.5875 1V-1Z" fill="#49B7C5" mask="url(#path-1-inside-1)"/>
<mask id="path-3-inside-2" fill="white">
<path fill-rule="evenodd" clip-rule="evenodd" d="M23.8118 5.77271C28.0184 5.77271 31.4285 9.18279 31.4285 13.3893C31.4285 15.8479 30.2636 18.0345 28.4556 19.4271L29.1833 22.2887L24.2969 20.9908C24.1365 21.0008 23.9748 21.006 23.8118 21.006H18.841C14.6344 21.006 11.2244 17.5959 11.2244 13.3893C11.2244 9.18279 14.6344 5.77271 18.841 5.77271H23.8118Z"/>
</mask>
<path fill-rule="evenodd" clip-rule="evenodd" d="M23.8118 5.77271C28.0184 5.77271 31.4285 9.18279 31.4285 13.3893C31.4285 15.8479 30.2636 18.0345 28.4556 19.4271L29.1833 22.2887L24.2969 20.9908C24.1365 21.0008 23.9748 21.006 23.8118 21.006H18.841C14.6344 21.006 11.2244 17.5959 11.2244 13.3893C11.2244 9.18279 14.6344 5.77271 18.841 5.77271H23.8118Z" fill="#F4F6F9"/>
<path d="M28.4556 19.4271L27.4864 19.6735L27.3243 19.0362L27.8454 18.6349L28.4556 19.4271ZM29.1833 22.2887L30.1524 22.0422L30.572 23.6923L28.9265 23.2552L29.1833 22.2887ZM24.2969 20.9908L24.2342 19.9927L24.3965 19.9825L24.5537 20.0243L24.2969 20.9908ZM30.4285 13.3893C30.4285 9.73507 27.4661 6.77271 23.8118 6.77271V4.77271C28.5707 4.77271 32.4285 8.6305 32.4285 13.3893H30.4285ZM27.8454 18.6349C29.4181 17.4234 30.4285 15.5246 30.4285 13.3893H32.4285C32.4285 16.1713 31.109 18.6455 29.0658 20.2193L27.8454 18.6349ZM29.4247 19.1806L30.1524 22.0422L28.2141 22.5352L27.4864 19.6735L29.4247 19.1806ZM28.9265 23.2552L24.0402 21.9573L24.5537 20.0243L29.44 21.3222L28.9265 23.2552ZM23.8118 20.006C23.9538 20.006 24.0947 20.0015 24.2342 19.9927L24.3597 21.9888C24.1784 22.0002 23.9957 22.006 23.8118 22.006V20.006ZM18.841 20.006H23.8118V22.006H18.841V20.006ZM12.2244 13.3893C12.2244 17.0436 15.1867 20.006 18.841 20.006V22.006C14.0821 22.006 10.2244 18.1482 10.2244 13.3893H12.2244ZM18.841 6.77271C15.1867 6.77271 12.2244 9.73507 12.2244 13.3893H10.2244C10.2244 8.6305 14.0822 4.77271 18.841 4.77271V6.77271ZM23.8118 6.77271H18.841V4.77271H23.8118V6.77271Z" fill="#49B7C5" mask="url(#path-3-inside-2)"/>
<mask id="path-5-inside-3" fill="white">
<path fill-rule="evenodd" clip-rule="evenodd" d="M7.61663 13.4839C3.41008 13.4839 0 16.894 0 21.1006C0 23.5551 1.161 25.7384 2.96379 27.1313L2.24468 30L7.13132 28.702C7.29179 28.7121 7.45361 28.7172 7.61663 28.7172H12.5875C16.794 28.7172 20.2041 25.3071 20.2041 21.1006C20.2041 16.894 16.794 13.4839 12.5875 13.4839H7.61663Z"/>
</mask>
<path fill-rule="evenodd" clip-rule="evenodd" d="M7.61663 13.4839C3.41008 13.4839 0 16.894 0 21.1006C0 23.5551 1.161 25.7384 2.96379 27.1313L2.24468 30L7.13132 28.702C7.29179 28.7121 7.45361 28.7172 7.61663 28.7172H12.5875C16.794 28.7172 20.2041 25.3071 20.2041 21.1006C20.2041 16.894 16.794 13.4839 12.5875 13.4839H7.61663Z" fill="#F4F6F9"/>
<path d="M2.96379 27.1313L3.93377 27.3745L4.09283 26.7399L3.5752 26.34L2.96379 27.1313ZM2.24468 30L1.27469 29.7569L0.862328 31.4019L2.5014 30.9665L2.24468 30ZM7.13132 28.702L7.19407 27.704L7.03177 27.6938L6.87459 27.7355L7.13132 28.702ZM1 21.1006C1 17.4463 3.96236 14.4839 7.61663 14.4839V12.4839C2.85779 12.4839 -1 16.3417 -1 21.1006H1ZM3.5752 26.34C2.00693 25.1283 1 23.2322 1 21.1006H-1C-1 23.8779 0.315062 26.3485 2.35237 27.9226L3.5752 26.34ZM1.9938 26.8882L1.27469 29.7569L3.21467 30.2432L3.93377 27.3745L1.9938 26.8882ZM2.5014 30.9665L7.38804 29.6685L6.87459 27.7355L1.98796 29.0335L2.5014 30.9665ZM7.61663 27.7172C7.47456 27.7172 7.33367 27.7127 7.19407 27.704L7.06856 29.7C7.24991 29.7114 7.43266 29.7172 7.61663 29.7172V27.7172ZM12.5875 27.7172H7.61663V29.7172H12.5875V27.7172ZM19.2041 21.1006C19.2041 24.7548 16.2417 27.7172 12.5875 27.7172V29.7172C17.3463 29.7172 21.2041 25.8594 21.2041 21.1006H19.2041ZM12.5875 14.4839C16.2417 14.4839 19.2041 17.4463 19.2041 21.1006H21.2041C21.2041 16.3417 17.3463 12.4839 12.5875 12.4839V14.4839ZM7.61663 14.4839H12.5875V12.4839H7.61663V14.4839Z" fill="#49B7C5" mask="url(#path-5-inside-3)"/>
<path d="M7.85718 24.2711C8.80509 23.7871 10.8461 22.0203 11.185 19.3097" stroke="#49B7C5"/>
<path d="M7.19189 19.3097C7.38551 19.3097 10.6205 19.3097 12.2138 19.3097" stroke="#49B7C5"/>
<path d="M9.73291 17.9786V19.3703" stroke="#49B7C5"/>
<path d="M8.40186 21.3065C8.68421 21.9518 9.66036 23.3031 11.3061 23.5451" stroke="#49B7C5"/>
<path d="M4.94434 5.39356C4.94434 5.09392 5.12412 4.49463 5.84327 4.49463C6.56241 4.49463 6.7422 5.09392 6.7422 5.39356" stroke="#49B7C5"/>
<path d="M10.7874 5.39356C10.7874 5.09392 10.9671 4.49463 11.6863 4.49463C12.4054 4.49463 12.5852 5.09392 12.5852 5.39356" stroke="#49B7C5"/>
<path d="M9.88818 7.19146C9.88818 7.49111 9.7084 8.09039 8.98925 8.09039C8.27011 8.09039 8.09032 7.49111 8.09032 7.19146" stroke="#49B7C5"/>
<path d="M23.079 14.6886H20.2204L19.672 16.1808H19.0068L21.2991 9.97815H22.0093L24.2926 16.1808H23.6273L23.079 14.6886ZM22.8902 14.1672L21.6497 10.7692L20.4092 14.1672H22.8902Z" fill="#49B7C5"/>
<path fill-rule="evenodd" clip-rule="evenodd" d="M23.6273 16.1808L23.0789 14.6885H20.2203L19.672 16.1808H19.0067L21.299 9.97814H22.0092L24.2925 16.1808H23.6273ZM20.283 14.7784L19.7347 16.2707H18.8777L21.2364 9.88824H22.0719L24.4213 16.2707H23.5645L23.0162 14.7784H20.283ZM21.6496 10.7692L20.4091 14.1672H22.8901L21.6496 10.7692ZM21.6496 11.0313L20.5376 14.0773H22.7616L21.6496 11.0313Z" fill="#49B7C5"/>
</svg>
