<svg width="135" height="45" viewBox="0 0 135 45" fill="none" xmlns="http://www.w3.org/2000/svg">
<path d="M134.974 38.1906C134.974 41.4897 132.308 44.1554 129.009 44.1554H5.96481C2.66569 44.1554 0 41.4897 0 38.1906V5.96481C0 2.66569 2.66569 0 5.96481 0H129.035C132.334 0 135 2.66569 135 5.96481V38.1906H134.974Z" fill="black"/>
<path d="M105.044 29.2961C104.49 29.2961 103.962 29.1906 103.487 28.9794C103.012 28.7683 102.616 28.4516 102.299 28.0029H102.22C102.273 28.5044 102.326 28.9794 102.326 29.4545V33.0439H101.006V20.4545H102.088L102.273 21.6422H102.326C102.669 21.1671 103.065 20.824 103.513 20.6129C103.962 20.4017 104.49 20.2961 105.071 20.2961C106.232 20.2961 107.103 20.692 107.736 21.4838C108.37 22.2756 108.686 23.3841 108.686 24.8093C108.686 26.2346 108.37 27.3431 107.736 28.1349C107.05 28.9003 106.179 29.2961 105.044 29.2961ZM104.859 21.4047C103.962 21.4047 103.329 21.6422 102.933 22.1437C102.537 22.6451 102.326 23.4105 102.326 24.4926V24.7829C102.326 25.997 102.537 26.868 102.933 27.3958C103.329 27.9237 103.989 28.1876 104.886 28.1876C105.625 28.1876 106.232 27.8709 106.654 27.2639C107.076 26.6568 107.288 25.8123 107.288 24.7566C107.288 23.6744 107.076 22.8299 106.654 22.2492C106.232 21.695 105.625 21.4047 104.859 21.4047Z" fill="#F9F9F9"/>
<path d="M111.695 29.1378H110.376V16.7859H111.695V29.1378Z" fill="#F9F9F9"/>
<path d="M119.27 29.1378L119.006 27.8973H118.953C118.531 28.4516 118.082 28.8211 117.66 29.0058C117.238 29.1906 116.684 29.2961 116.05 29.2961C115.179 29.2961 114.519 29.085 114.018 28.6363C113.516 28.1876 113.279 27.5542 113.279 26.736C113.279 24.9677 114.678 24.0703 117.502 23.9648L118.98 23.912V23.3841C118.98 22.6979 118.821 22.1964 118.531 21.8797C118.241 21.563 117.766 21.4047 117.132 21.4047C116.42 21.4047 115.575 21.6158 114.678 22.0645L114.282 21.0615C114.704 20.824 115.179 20.6392 115.681 20.5073C116.182 20.3753 116.71 20.2961 117.211 20.2961C118.241 20.2961 119.006 20.5337 119.508 20.9824C120.009 21.431 120.247 22.17 120.247 23.1994V29.1378H119.27ZM116.314 28.214C117.132 28.214 117.766 27.9765 118.241 27.5278C118.716 27.0791 118.953 26.4457 118.953 25.6275V24.8357L117.634 24.8885C116.578 24.9149 115.839 25.0997 115.364 25.39C114.889 25.6803 114.678 26.129 114.678 26.736C114.678 27.2111 114.81 27.5806 115.1 27.8181C115.39 28.0821 115.786 28.214 116.314 28.214Z" fill="#F9F9F9"/>
<path d="M121.012 20.4281H122.411L124.311 25.39C124.733 26.5249 124.997 27.3431 125.076 27.8445H125.129C125.208 27.5806 125.34 27.1055 125.552 26.4721C125.763 25.8123 126.502 23.8064 127.716 20.4545H129.141L125.446 30.3519C125.076 31.3284 124.654 32.0146 124.153 32.4369C123.651 32.8592 123.044 33.0439 122.332 33.0439C121.936 33.0439 121.54 32.9911 121.144 32.912V31.8562C121.434 31.909 121.751 31.9618 122.12 31.9618C123.018 31.9618 123.678 31.4604 124.047 30.431L124.522 29.1906L121.012 20.4281Z" fill="#F9F9F9"/>
<path d="M80.6304 21.2462C81.0527 21.5894 81.9236 22.3284 81.9236 23.7008C81.9236 25.0468 81.1582 25.6803 80.3928 26.2873C80.1553 26.5248 79.8914 26.7888 79.8914 27.1847C79.8914 27.5806 80.1553 27.7917 80.3664 27.9765L81.0263 28.4779C81.8181 29.1641 82.5571 29.7712 82.5571 31.038C82.5571 32.7536 80.8943 34.4691 77.7799 34.4691C75.1406 34.4691 73.8738 33.2023 73.8738 31.8562C73.8738 31.1964 74.1905 30.2726 75.2726 29.6392C76.4075 28.953 77.9383 28.8474 78.7565 28.7946C78.4925 28.4779 78.2022 28.1348 78.2022 27.5542C78.2022 27.2375 78.2814 27.0527 78.387 26.8416C78.1758 26.8679 77.9911 26.8679 77.8063 26.8679C75.8796 26.8679 74.7975 25.4427 74.7975 24.0175C74.7975 23.1729 75.167 22.2492 75.9588 21.5894C76.9881 20.7448 78.2286 20.5864 79.2052 20.5864H82.953L81.7917 21.2462H80.6304ZM79.3635 29.3225C79.2052 29.2961 79.126 29.2961 78.9412 29.2961C78.7829 29.2961 77.8063 29.3225 77.0409 29.5864C76.645 29.7184 75.4838 30.1671 75.4838 31.4603C75.4838 32.7536 76.7506 33.6773 78.6773 33.6773C80.4192 33.6773 81.343 32.8328 81.343 31.7242C81.343 30.8005 80.7359 30.299 79.3635 29.3225ZM79.8914 25.865C80.3137 25.4427 80.3401 24.8621 80.3401 24.5454C80.3401 23.2257 79.5483 21.1935 78.0439 21.1935C77.5688 21.1935 77.0673 21.431 76.777 21.8005C76.4603 22.17 76.3811 22.6715 76.3811 23.1465C76.3811 24.3606 77.0937 26.3929 78.6509 26.3929C79.0996 26.3665 79.5747 26.1553 79.8914 25.865Z" fill="#F9F9F9"/>
<path d="M69.2023 29.0322C66.3255 29.0322 64.7683 26.7888 64.7683 24.7565C64.7683 22.3811 66.7214 20.3489 69.4663 20.3489C72.1319 20.3489 73.7947 22.4339 73.7947 24.6245C73.7947 26.7624 72.1583 29.0322 69.2023 29.0322ZM71.4721 27.5542C71.9208 26.9735 72.0264 26.2345 72.0264 25.5483C72.0264 23.9383 71.261 20.9031 69.0176 20.9031C68.4105 20.9031 67.8299 21.1407 67.3812 21.5102C66.6686 22.1436 66.5366 22.9354 66.5366 23.7272C66.5366 25.5219 67.434 28.4779 69.6246 28.4779C70.3108 28.4779 71.0498 28.1348 71.4721 27.5542Z" fill="#F9F9F9"/>
<path d="M59.3579 29.0322C56.481 29.0322 54.9238 26.7888 54.9238 24.7565C54.9238 22.3811 56.8769 20.3489 59.6218 20.3489C62.2875 20.3489 63.9502 22.4339 63.9502 24.6245C63.9502 26.7624 62.3139 29.0322 59.3579 29.0322ZM61.6276 27.5542C62.0763 26.9735 62.1819 26.2345 62.1819 25.5483C62.1819 23.9383 61.4165 20.9031 59.1731 20.9031C58.5661 20.9031 57.9854 21.1407 57.5367 21.5102C56.8241 22.1436 56.6922 22.9354 56.6922 23.7272C56.6922 25.5219 57.5895 28.4779 59.7801 28.4779C60.4664 28.4779 61.2054 28.1348 61.6276 27.5542Z" fill="#F9F9F9"/>
<path d="M53.525 28.7418L50.9121 29.3489C49.8564 29.5072 48.9062 29.6656 47.9033 29.6656C42.8622 29.6656 40.9355 25.9706 40.9355 23.0673C40.9355 19.5307 43.654 16.2316 48.2992 16.2316C49.2757 16.2316 50.2259 16.3899 51.0968 16.6275C52.4693 17.0234 53.1027 17.472 53.4986 17.7624L51.9942 19.214L51.3608 19.3723L51.8094 18.6333C51.176 18.0263 50.0675 16.9178 47.9033 16.9178C45.0265 16.9178 42.8358 19.1084 42.8358 22.3019C42.8358 25.733 45.3168 28.953 49.3021 28.953C50.4634 28.953 51.0704 28.7154 51.6247 28.5043V25.5747L48.8798 25.733L50.3314 24.9412H54.2112L53.7361 25.3899C53.6042 25.4955 53.5778 25.5483 53.5514 25.6802C53.525 25.8386 53.525 26.3665 53.525 26.5512V28.7418Z" fill="#F9F9F9"/>
<path d="M86.4106 28.214C85.8035 28.1612 85.6716 28.0557 85.6716 27.3431V27.1319V16.997C85.6716 16.9706 85.6716 16.9178 85.6716 16.8914C85.7507 16.258 85.9355 16.1524 86.4897 15.8093H83.8768L82.5044 16.4692H83.9032V27.1319V27.7389C83.9032 28.1084 83.824 28.1612 83.4018 28.7155H86.6217L87.3079 28.3196C87.044 28.2668 86.7273 28.2668 86.4106 28.214Z" fill="#F9F9F9"/>
<path d="M93.8536 28.3988C93.6425 28.5043 93.4577 28.6363 93.2466 28.7155C92.6396 28.9794 92.0325 29.0586 91.4783 29.0586C90.8976 29.0586 90.0003 29.0322 89.0765 28.346C87.7833 27.4486 87.229 25.8914 87.229 24.519C87.229 21.7213 89.5252 20.3225 91.3727 20.3225C92.0325 20.3225 92.6923 20.4809 93.2466 20.824C94.144 21.431 94.3815 22.1964 94.5135 22.6187L90.2642 24.3342L88.8654 24.4398C89.314 26.736 90.8712 28.082 92.6132 28.082C93.5369 28.082 94.1967 27.7653 94.8302 27.4486L93.8536 28.3988ZM92.1381 22.9882C92.4812 22.8562 92.6659 22.7507 92.6659 22.4867C92.6659 21.7741 91.8478 20.9295 90.8712 20.9295C90.1322 20.9295 88.7862 21.4838 88.7862 23.4369C88.7862 23.7536 88.8126 24.0703 88.839 24.387L92.1381 22.9882Z" fill="#F9F9F9"/>
<path d="M95.5955 20.4545V21.6422H95.4372V20.4545H95.0413V20.3225H95.965V20.4545H95.5955Z" fill="#F9F9F9"/>
<path d="M97.2322 21.6685V20.4544L96.8627 21.6685H96.7571L96.3876 20.4544V21.6685H96.2556V20.3489H96.4932L96.8363 21.4046L97.1794 20.3489H97.4169V21.6685H97.2322Z" fill="#F9F9F9"/>
<path d="M44.5777 12.6693H43.6804C43.6804 12.5373 43.6012 12.1942 43.4164 11.6135H42.0968C41.912 12.1942 41.8329 12.5373 41.8329 12.6693H40.9883C40.9883 12.5901 41.1994 11.983 41.6481 10.8481C42.0968 9.71325 42.3079 9.07982 42.3079 8.97424H43.39C43.39 9.07982 43.6012 9.68685 43.9971 10.8218C44.3666 11.9566 44.5777 12.5637 44.5777 12.6693ZM43.2581 11.0593C42.9414 10.0827 42.783 9.55489 42.783 9.47571H42.7302C42.7302 9.55489 42.5719 10.0827 42.2288 11.0593H43.2581Z" fill="#F9F9FA"/>
<path d="M48.2198 12.6687H47.5072C47.5072 12.5895 47.2432 12.1936 46.7154 11.4282C46.1611 10.6364 45.8708 10.1086 45.7916 9.81823H45.7388C45.7916 10.2405 45.818 10.61 45.818 10.9531C45.818 11.4282 45.818 11.9825 45.8708 12.6687H45.1846C45.211 12.088 45.2374 11.4282 45.2374 10.742C45.2374 10.0558 45.211 9.47513 45.1846 8.97366H46.0291C46.0291 9.07923 46.2667 9.47513 46.7418 10.1613C47.2432 10.9003 47.5335 11.4018 47.5863 11.6657H47.6391C47.5863 11.2435 47.5599 10.874 47.5599 10.5308C47.5599 10.0294 47.5335 9.50152 47.5072 8.94727H48.2198C48.1934 9.42234 48.167 10.003 48.167 10.7156C48.1934 11.4546 48.1934 12.088 48.2198 12.6687Z" fill="#F9F9FA"/>
<path d="M52.3373 10.6892C52.3373 11.217 52.1525 11.6921 51.8094 12.088C51.4663 12.4839 50.9913 12.695 50.3578 12.695C50.0675 12.695 49.698 12.695 49.1965 12.6686C49.2229 12.088 49.2229 11.4546 49.2229 10.742C49.2229 10.0557 49.2229 9.4751 49.1965 8.97363H49.698C49.7772 8.97363 49.9091 8.97363 50.0675 8.97363C50.2259 8.97363 50.3314 8.97363 50.3842 8.97363C51.0704 8.97363 51.5719 9.13199 51.8622 9.4751C52.1789 9.81821 52.3373 10.2141 52.3373 10.6892ZM51.5719 10.8211C51.5719 10.4516 51.4663 10.1613 51.2552 9.89739C51.044 9.65985 50.7273 9.52789 50.2786 9.52789C50.1995 9.52789 50.0939 9.52788 49.9355 9.55427C49.9619 9.92377 49.9619 10.3197 49.9619 10.742C49.9619 11.1906 49.9619 11.6393 49.9883 12.088C50.1203 12.1144 50.2259 12.1144 50.3578 12.1144C50.7537 12.1144 51.0704 11.9824 51.2552 11.7449C51.4663 11.481 51.5719 11.1642 51.5719 10.8211Z" fill="#F9F9FA"/>
<path d="M56.1377 12.6686H55.2931C55.082 12.0088 54.8972 11.5865 54.7916 11.4282C54.6861 11.2698 54.4749 11.1906 54.2374 11.1906C54.1318 11.1906 54.0262 11.1906 53.9207 11.1906C53.9207 11.6657 53.9207 12.1672 53.9471 12.6686H53.1553C53.1817 12.088 53.1817 11.4546 53.1817 10.742C53.1817 10.0557 53.1817 9.4751 53.1553 8.97363H53.6567C53.7095 8.97363 53.8415 8.97363 53.9998 8.97363C54.1846 8.97363 54.343 8.97363 54.5013 8.97363C55.3723 8.97363 55.7946 9.26395 55.7946 9.87099C55.7946 10.3461 55.557 10.6628 55.0556 10.8475V10.9003C55.2403 10.9531 55.4251 11.1115 55.557 11.349C55.689 11.5601 55.8737 12.0088 56.1377 12.6686ZM55.0556 10.0557C55.0556 9.68624 54.818 9.50149 54.3166 9.50149C54.1318 9.50149 53.9735 9.50149 53.8415 9.55427C53.8679 9.8446 53.8679 10.2405 53.8679 10.6892C53.9735 10.6892 54.0526 10.6892 54.1318 10.6892C54.7652 10.6892 55.0556 10.478 55.0556 10.0557Z" fill="#F9F9FA"/>
<path d="M60.2022 10.7419C60.2022 11.3226 60.0175 11.7977 59.6744 12.1935C59.3313 12.5631 58.8826 12.7742 58.3547 12.7742C57.8533 12.7742 57.431 12.5894 57.1143 12.2463C56.7711 11.9032 56.6128 11.4545 56.6128 10.9003C56.6128 10.3196 56.7975 9.84458 57.1407 9.44868C57.4838 9.07918 57.9324 8.86804 58.4603 8.86804C58.9618 8.86804 59.384 9.05279 59.7008 9.3959C60.0175 9.7654 60.2022 10.2141 60.2022 10.7419ZM59.4104 10.8211C59.4104 10.4252 59.3049 10.1085 59.1201 9.87097C58.909 9.63343 58.6714 9.50147 58.3811 9.50147C58.1172 9.50147 57.8797 9.63343 57.6685 9.87097C57.4838 10.1085 57.3782 10.4252 57.3782 10.8211C57.3782 11.217 57.4838 11.5337 57.6949 11.7713C57.906 12.0088 58.1436 12.1408 58.4339 12.1408C58.6978 12.1408 58.9354 12.0088 59.1465 11.7713C59.3049 11.5337 59.4104 11.217 59.4104 10.8211Z" fill="#F9F9FA"/>
<path d="M61.7857 12.6686H60.9939C61.0203 12.088 61.0203 11.4282 61.0203 10.742C61.0203 10.0557 61.0203 9.4751 60.9939 8.97363H61.7857C61.7593 9.44871 61.7593 10.0293 61.7593 10.742C61.7593 11.4546 61.7857 12.088 61.7857 12.6686Z" fill="#F9F9FA"/>
<path d="M65.903 10.6892C65.903 11.217 65.7182 11.6921 65.3751 12.088C65.032 12.4839 64.5569 12.695 63.9235 12.695C63.6332 12.695 63.2637 12.695 62.7622 12.6686C62.7886 12.088 62.7886 11.4546 62.7886 10.742C62.7886 10.0557 62.7886 9.4751 62.7622 8.97363H63.2637C63.3429 8.97363 63.4748 8.97363 63.6332 8.97363C63.7915 8.97363 63.8971 8.97363 63.9499 8.97363C64.6361 8.97363 65.1376 9.13199 65.4279 9.4751C65.7446 9.81821 65.903 10.2141 65.903 10.6892ZM65.1376 10.8211C65.1376 10.4516 65.032 10.1613 64.8209 9.89739C64.6097 9.65985 64.293 9.52789 63.8443 9.52789C63.7651 9.52789 63.6596 9.52788 63.5012 9.55427C63.5276 9.92377 63.5276 10.3197 63.5276 10.742C63.5276 11.1906 63.5276 11.6393 63.554 12.088C63.686 12.1144 63.7915 12.1144 63.9235 12.1144C64.3194 12.1144 64.6361 11.9824 64.8209 11.7449C65.032 11.481 65.1376 11.1642 65.1376 10.8211Z" fill="#F9F9FA"/>
<path d="M71.3663 12.6686H70.4689C70.4689 12.5367 70.3898 12.1936 70.205 11.6129H68.8854C68.7006 12.1936 68.6214 12.5367 68.6214 12.6686H67.7769C67.7769 12.5895 67.988 11.9824 68.4367 10.8475C68.8854 9.71264 69.0965 9.0792 69.0965 8.97363H70.1786C70.1786 9.0792 70.3898 9.68624 70.7857 10.8211C71.1552 11.956 71.3663 12.5631 71.3663 12.6686ZM70.0467 11.0587C69.7299 10.0821 69.5716 9.55428 69.5716 9.4751H69.5188C69.5188 9.55428 69.3604 10.0821 69.0173 11.0587H70.0467Z" fill="#F9F9FA"/>
<path d="M74.6652 9.95017C74.6652 10.3988 74.5069 10.742 74.1638 10.9531C73.8207 11.1642 73.4248 11.2698 72.9233 11.2698C72.8441 11.2698 72.7649 11.2698 72.7385 11.2698C72.7385 11.6129 72.7385 12.088 72.7649 12.6686H71.9731C71.9995 12.1144 71.9995 11.481 71.9995 10.742C71.9995 10.0557 71.9995 9.4751 71.9731 8.97363H72.4746C72.5538 8.97363 72.6858 8.97363 72.8705 8.97363C73.0816 8.97363 73.24 8.97363 73.3984 8.97363C73.7679 8.97363 74.0582 9.05281 74.2957 9.21117C74.5333 9.36953 74.6652 9.60706 74.6652 9.95017ZM73.9262 10.1085C73.9262 9.71263 73.6623 9.50149 73.108 9.50149C72.9761 9.50149 72.8441 9.52788 72.6858 9.55427C72.7122 9.92377 72.7122 10.3197 72.7122 10.7684C72.7649 10.7684 72.8177 10.7684 72.8705 10.7684C73.5831 10.742 73.9262 10.5308 73.9262 10.1085Z" fill="#F9F9FA"/>
<path d="M78.0703 9.95017C78.0703 10.3988 77.9119 10.742 77.5688 10.9531C77.2257 11.1642 76.8298 11.2698 76.3283 11.2698C76.2491 11.2698 76.17 11.2698 76.1436 11.2698C76.1436 11.6129 76.1436 12.088 76.17 12.6686H75.3782C75.4046 12.1144 75.4046 11.481 75.4046 10.742C75.4046 10.0557 75.4046 9.4751 75.3782 8.97363H75.8796C75.9588 8.97363 76.0908 8.97363 76.2755 8.97363C76.4867 8.97363 76.645 8.97363 76.8034 8.97363C77.1729 8.97363 77.4632 9.05281 77.7008 9.21117C77.9383 9.36953 78.0703 9.60706 78.0703 9.95017ZM77.3313 10.1085C77.3313 9.71263 77.0673 9.50149 76.5131 9.50149C76.3811 9.50149 76.2491 9.52788 76.0908 9.55427C76.1172 9.92377 76.1172 10.3197 76.1172 10.7684C76.17 10.7684 76.2228 10.7684 76.2755 10.7684C76.9882 10.742 77.3313 10.5308 77.3313 10.1085Z" fill="#F9F9FA"/>
<path d="M83.6126 10.7419C83.6126 11.3226 83.4279 11.7977 83.0848 12.1935C82.7417 12.5631 82.293 12.7742 81.7651 12.7742C81.2637 12.7742 80.8414 12.5894 80.5247 12.2463C80.1815 11.9032 80.0232 11.4545 80.0232 10.9003C80.0232 10.3196 80.2079 9.84458 80.5511 9.44868C80.8942 9.07918 81.3428 8.86804 81.8707 8.86804C82.3722 8.86804 82.7945 9.05279 83.1112 9.3959C83.4543 9.7654 83.6126 10.2141 83.6126 10.7419ZM82.8472 10.8211C82.8472 10.4252 82.7417 10.1085 82.5569 9.87097C82.3458 9.63343 82.1082 9.50147 81.8179 9.50147C81.554 9.50147 81.3165 9.63343 81.1053 9.87097C80.9206 10.1085 80.815 10.4252 80.815 10.8211C80.815 11.217 80.9206 11.5337 81.1317 11.7713C81.3428 12.0088 81.5804 12.1408 81.8707 12.1408C82.1346 12.1408 82.3722 12.0088 82.5833 11.7713C82.7417 11.5337 82.8472 11.217 82.8472 10.8211Z" fill="#F9F9FA"/>
<path d="M87.4661 12.6687H86.7535C86.7535 12.5895 86.4896 12.1936 85.9617 11.4282C85.4074 10.6364 85.1171 10.1086 85.0379 9.81823H84.9852C85.0379 10.2405 85.0643 10.61 85.0643 10.9531C85.0643 11.4282 85.0643 11.9825 85.1171 12.6687H84.4309C84.4573 12.088 84.4837 11.4282 84.4837 10.742C84.4837 10.0558 84.4573 9.47513 84.4309 8.97366H85.2755C85.2755 9.07923 85.513 9.47513 85.9881 10.1613C86.4896 10.9003 86.7799 11.4018 86.8327 11.6657H86.8855C86.8327 11.2435 86.8063 10.874 86.8063 10.5308C86.8063 10.0294 86.8063 9.50152 86.7535 8.94727H87.4661C87.4397 9.42234 87.4133 10.003 87.4133 10.7156C87.4397 11.4546 87.4397 12.088 87.4661 12.6687Z" fill="#F9F9FA"/>
<path d="M11.6138 7.50381C12.1542 7.43365 12.7022 7.55352 13.1639 7.84291L28.9078 16.7927L24.9234 20.8256L11.6138 7.50381ZM10.4027 8.71488C10.3268 8.97854 10.2901 9.25194 10.2937 9.5263V34.547C10.2901 34.8213 10.3268 35.0947 10.4027 35.3584L23.7244 22.0366L10.4027 8.71488ZM24.9355 23.2477L11.6138 36.5694C12.1544 36.646 12.7046 36.5256 13.1639 36.2303L28.9078 27.2805L24.9355 23.2477ZM35.2538 20.4138L30.4822 17.701L26.1224 22.0366L30.4701 26.3844L35.2417 23.6716C36.8161 22.7754 36.8161 21.2979 35.2417 20.4017L35.2538 20.4138Z" fill="white"/>
</svg>
