<svg width="32" height="32" viewBox="0 0 32 32" fill="none" xmlns="http://www.w3.org/2000/svg">
<path d="M30.0908 11.7576L20.0908 2.06067" stroke="#49B7C5"/>
<path d="M2.21191 19.9394L12.2119 29.9394" stroke="#49B7C5"/>
<path d="M4.93921 17.2121L14.9392 26.909M9.48466 15.9999L15.8483 22.3636" stroke="#49B7C5"/>
<path d="M17.0607 4.48486L27.0607 14.7879M16.1516 9.03032L22.8183 16" stroke="#49B7C5"/>
<path d="M1 23.2727C1.30303 21.4545 1.60606 19.3333 3.90907 17.6363C6.32411 15.8568 11.9091 15.9999 16.1515 15.9999C20.3939 15.9999 25.2424 16.606 27.9697 14.4848C30.1515 12.7878 31 9.93936 31 8.72723" stroke="#49B7C5"/>
<path d="M8.72701 31C10.5452 30.697 12.6664 30.3939 14.3634 28.0909C16.1429 25.6759 15.9998 20.0909 15.9998 15.8485C15.9998 11.6061 15.5452 6.60606 17.6664 3.87879C19.3634 1.69697 22.0603 0.999999 23.2725 0.999999" stroke="#49B7C5"/>
</svg>
